<?xml version="1.0" encoding="UTF-8" standalone="no"?>
<!DOCTYPE svg PUBLIC "-//W3C//DTD SVG 1.1//EN"
 "http://www.w3.org/Graphics/SVG/1.1/DTD/svg11.dtd">
<!-- Generated by graphviz version 5.0.0 (20220707.1540)
 -->
<!-- Title: dependencies Pages: 1 -->
<svg width="454pt" height="174pt"
 viewBox="0.00 0.00 454.00 173.80" xmlns="http://www.w3.org/2000/svg" xmlns:xlink="http://www.w3.org/1999/xlink">
<g id="graph0" class="graph" transform="scale(1 1) rotate(0) translate(4 169.8)">
<title>dependencies</title>
<polygon fill="white" stroke="transparent" points="-4,4 -4,-169.8 450,-169.8 450,4 -4,4"/>
<text text-anchor="middle" x="223" y="-8.2" font-family="sans-serif" font-size="14.00">dependencies</text>
<g id="clust1" class="cluster">
<title>cluster_UserManagementPageModule</title>
<polygon fill="none" stroke="black" stroke-dasharray="1,5" points="8,-32.8 8,-157.8 438,-157.8 438,-32.8 8,-32.8"/>
</g>
<g id="clust2" class="cluster">
<title>cluster_UserManagementPageModule_declarations</title>
<polygon fill="none" stroke="black" points="272,-40.8 272,-92.8 430,-92.8 430,-40.8 272,-40.8"/>
</g>
<g id="clust4" class="cluster">
<title>cluster_UserManagementPageModule_imports</title>
<polygon fill="none" stroke="black" points="16,-40.8 16,-92.8 264,-92.8 264,-40.8 16,-40.8"/>
</g>
<!-- UserManagementPage -->
<g id="node1" class="node">
<title>UserManagementPage</title>
<polygon fill="#ffffb3" stroke="black" points="422.23,-84.8 279.77,-84.8 279.77,-48.8 422.23,-48.8 422.23,-84.8"/>
<text text-anchor="middle" x="351" y="-62.6" font-family="Times,serif" font-size="14.00">UserManagementPage</text>
</g>
<!-- UserManagementPageModule -->
<g id="node2" class="node">
<title>UserManagementPageModule</title>
<polygon fill="#8dd3c7" stroke="black" points="331.28,-149.8 328.28,-153.8 307.28,-153.8 304.28,-149.8 144.72,-149.8 144.72,-113.8 331.28,-113.8 331.28,-149.8"/>
<text text-anchor="middle" x="238" y="-127.6" font-family="Times,serif" font-size="14.00">UserManagementPageModule</text>
</g>
<!-- UserManagementPage&#45;&gt;UserManagementPageModule -->
<g id="edge1" class="edge">
<title>UserManagementPage&#45;&gt;UserManagementPageModule</title>
<path fill="none" stroke="black" d="M305.39,-84.91C305.39,-84.91 305.39,-103.79 305.39,-103.79"/>
<polygon fill="black" stroke="black" points="301.89,-103.79 305.39,-113.79 308.89,-103.79 301.89,-103.79"/>
</g>
<!-- UserManagementPageRoutingModule -->
<g id="node3" class="node">
<title>UserManagementPageRoutingModule</title>
<polygon fill="#8dd3c7" stroke="black" points="255.9,-84.8 252.9,-88.8 231.9,-88.8 228.9,-84.8 24.1,-84.8 24.1,-48.8 255.9,-48.8 255.9,-84.8"/>
<text text-anchor="middle" x="140" y="-62.6" font-family="Times,serif" font-size="14.00">UserManagementPageRoutingModule</text>
</g>
<!-- UserManagementPageRoutingModule&#45;&gt;UserManagementPageModule -->
<g id="edge2" class="edge">
<title>UserManagementPageRoutingModule&#45;&gt;UserManagementPageModule</title>
<path fill="none" stroke="black" d="M200.28,-84.91C200.28,-84.91 200.28,-103.79 200.28,-103.79"/>
<polygon fill="black" stroke="black" points="196.78,-103.79 200.28,-113.79 203.78,-103.79 196.78,-103.79"/>
</g>
</g>
</svg>
