<?xml version="1.0" encoding="UTF-8" standalone="no"?>
<!DOCTYPE svg PUBLIC "-//W3C//DTD SVG 1.1//EN"
 "http://www.w3.org/Graphics/SVG/1.1/DTD/svg11.dtd">
<!-- Generated by graphviz version 5.0.0 (20220707.1540)
 -->
<!-- Title: dependencies Pages: 1 -->
<svg width="4050pt" height="247pt"
 viewBox="0.00 0.00 4050.00 246.80" xmlns="http://www.w3.org/2000/svg" xmlns:xlink="http://www.w3.org/1999/xlink">
<g id="graph0" class="graph" transform="scale(1 1) rotate(0) translate(4 242.8)">
<title>dependencies</title>
<polygon fill="white" stroke="transparent" points="-4,4 -4,-242.8 4046,-242.8 4046,4 -4,4"/>
<text text-anchor="middle" x="2021" y="-8.2" font-family="sans-serif" font-size="14.00">dependencies</text>
<g id="clust1" class="cluster">
<title>cluster_AppModule</title>
<polygon fill="none" stroke="black" stroke-dasharray="1,5" points="8,-32.8 8,-230.8 298,-230.8 298,-32.8 8,-32.8"/>
</g>
<g id="clust2" class="cluster">
<title>cluster_AppModule_declarations</title>
<polygon fill="none" stroke="black" points="168,-40.8 168,-92.8 290,-92.8 290,-40.8 168,-40.8"/>
</g>
<g id="clust4" class="cluster">
<title>cluster_AppModule_imports</title>
<polygon fill="none" stroke="black" points="16,-40.8 16,-92.8 160,-92.8 160,-40.8 16,-40.8"/>
</g>
<g id="clust6" class="cluster">
<title>cluster_AppModule_bootstrap</title>
<polygon fill="none" stroke="black" points="96,-170.8 96,-222.8 220,-222.8 220,-170.8 96,-170.8"/>
</g>
<g id="clust14" class="cluster">
<title>cluster_ForgotPasswordPageModule</title>
<polygon fill="none" stroke="black" stroke-dasharray="1,5" points="306,-32.8 306,-157.8 718,-157.8 718,-32.8 306,-32.8"/>
</g>
<g id="clust15" class="cluster">
<title>cluster_ForgotPasswordPageModule_declarations</title>
<polygon fill="none" stroke="black" points="560,-40.8 560,-92.8 710,-92.8 710,-40.8 560,-40.8"/>
</g>
<g id="clust17" class="cluster">
<title>cluster_ForgotPasswordPageModule_imports</title>
<polygon fill="none" stroke="black" points="314,-40.8 314,-92.8 552,-92.8 552,-40.8 314,-40.8"/>
</g>
<g id="clust27" class="cluster">
<title>cluster_HomePageModule</title>
<polygon fill="none" stroke="black" stroke-dasharray="1,5" points="726,-32.8 726,-157.8 1026,-157.8 1026,-32.8 726,-32.8"/>
</g>
<g id="clust28" class="cluster">
<title>cluster_HomePageModule_declarations</title>
<polygon fill="none" stroke="black" points="924,-40.8 924,-92.8 1018,-92.8 1018,-40.8 924,-40.8"/>
</g>
<g id="clust30" class="cluster">
<title>cluster_HomePageModule_imports</title>
<polygon fill="none" stroke="black" points="734,-40.8 734,-92.8 916,-92.8 916,-40.8 734,-40.8"/>
</g>
<g id="clust40" class="cluster">
<title>cluster_InventoryManagementPageModule</title>
<polygon fill="none" stroke="black" stroke-dasharray="1,5" points="1034,-32.8 1034,-157.8 1712,-157.8 1712,-32.8 1034,-32.8"/>
</g>
<g id="clust41" class="cluster">
<title>cluster_InventoryManagementPageModule_declarations</title>
<polygon fill="none" stroke="black" points="1326,-40.8 1326,-92.8 1704,-92.8 1704,-40.8 1326,-40.8"/>
</g>
<g id="clust45" class="cluster">
<title>cluster_InventoryManagementPageModule_imports</title>
<polygon fill="none" stroke="black" points="1042,-40.8 1042,-92.8 1318,-92.8 1318,-40.8 1042,-40.8"/>
</g>
<g id="clust55" class="cluster">
<title>cluster_LoginPageModule</title>
<polygon fill="none" stroke="black" stroke-dasharray="1,5" points="1720,-32.8 1720,-157.8 2018,-157.8 2018,-32.8 1720,-32.8"/>
</g>
<g id="clust56" class="cluster">
<title>cluster_LoginPageModule_declarations</title>
<polygon fill="none" stroke="black" points="1918,-40.8 1918,-92.8 2010,-92.8 2010,-40.8 1918,-40.8"/>
</g>
<g id="clust58" class="cluster">
<title>cluster_LoginPageModule_imports</title>
<polygon fill="none" stroke="black" points="1728,-40.8 1728,-92.8 1910,-92.8 1910,-40.8 1728,-40.8"/>
</g>
<g id="clust68" class="cluster">
<title>cluster_OrderManagementPageModule</title>
<polygon fill="none" stroke="black" stroke-dasharray="1,5" points="2026,-32.8 2026,-157.8 2733,-157.8 2733,-32.8 2026,-32.8"/>
</g>
<g id="clust69" class="cluster">
<title>cluster_OrderManagementPageModule_declarations</title>
<polygon fill="none" stroke="black" points="2296,-40.8 2296,-92.8 2725,-92.8 2725,-40.8 2296,-40.8"/>
</g>
<g id="clust73" class="cluster">
<title>cluster_OrderManagementPageModule_imports</title>
<polygon fill="none" stroke="black" points="2034,-40.8 2034,-92.8 2288,-92.8 2288,-40.8 2034,-40.8"/>
</g>
<g id="clust83" class="cluster">
<title>cluster_PantryStatisticsPageModule</title>
<polygon fill="none" stroke="black" stroke-dasharray="1,5" points="2741,-32.8 2741,-157.8 3145,-157.8 3145,-32.8 2741,-32.8"/>
</g>
<g id="clust84" class="cluster">
<title>cluster_PantryStatisticsPageModule_declarations</title>
<polygon fill="none" stroke="black" points="2991,-40.8 2991,-92.8 3137,-92.8 3137,-40.8 2991,-40.8"/>
</g>
<g id="clust86" class="cluster">
<title>cluster_PantryStatisticsPageModule_imports</title>
<polygon fill="none" stroke="black" points="2749,-40.8 2749,-92.8 2983,-92.8 2983,-40.8 2749,-40.8"/>
</g>
<g id="clust96" class="cluster">
<title>cluster_ProfilePageModule</title>
<polygon fill="none" stroke="black" stroke-dasharray="1,5" points="3153,-32.8 3153,-157.8 3596,-157.8 3596,-32.8 3153,-32.8"/>
</g>
<g id="clust97" class="cluster">
<title>cluster_ProfilePageModule_declarations</title>
<polygon fill="none" stroke="black" points="3355,-40.8 3355,-92.8 3588,-92.8 3588,-40.8 3355,-40.8"/>
</g>
<g id="clust100" class="cluster">
<title>cluster_ProfilePageModule_imports</title>
<polygon fill="none" stroke="black" points="3161,-40.8 3161,-92.8 3347,-92.8 3347,-40.8 3161,-40.8"/>
</g>
<g id="clust110" class="cluster">
<title>cluster_UserManagementPageModule</title>
<polygon fill="none" stroke="black" stroke-dasharray="1,5" points="3604,-32.8 3604,-157.8 4034,-157.8 4034,-32.8 3604,-32.8"/>
</g>
<g id="clust111" class="cluster">
<title>cluster_UserManagementPageModule_declarations</title>
<polygon fill="none" stroke="black" points="3868,-40.8 3868,-92.8 4026,-92.8 4026,-40.8 3868,-40.8"/>
</g>
<g id="clust113" class="cluster">
<title>cluster_UserManagementPageModule_imports</title>
<polygon fill="none" stroke="black" points="3612,-40.8 3612,-92.8 3860,-92.8 3860,-40.8 3612,-40.8"/>
</g>
<!-- AppComponent -->
<g id="node1" class="node">
<title>AppComponent</title>
<polygon fill="#ffffb3" stroke="black" points="281.94,-84.8 176.06,-84.8 176.06,-48.8 281.94,-48.8 281.94,-84.8"/>
<text text-anchor="middle" x="229" y="-62.6" font-family="Times,serif" font-size="14.00">AppComponent</text>
</g>
<!-- AppModule -->
<g id="node2" class="node">
<title>AppModule</title>
<polygon fill="#8dd3c7" stroke="black" points="199.66,-149.8 196.66,-153.8 175.66,-153.8 172.66,-149.8 116.34,-149.8 116.34,-113.8 199.66,-113.8 199.66,-149.8"/>
<text text-anchor="middle" x="158" y="-127.6" font-family="Times,serif" font-size="14.00">AppModule</text>
</g>
<!-- AppComponent&#45;&gt;AppModule -->
<g id="edge1" class="edge">
<title>AppComponent&#45;&gt;AppModule</title>
<path fill="none" stroke="black" d="M188.06,-84.91C188.06,-84.91 188.06,-103.79 188.06,-103.79"/>
<polygon fill="black" stroke="black" points="184.56,-103.79 188.06,-113.79 191.56,-103.79 184.56,-103.79"/>
</g>
<!-- AppComponent  -->
<g id="node4" class="node">
<title>AppComponent </title>
<polygon fill="#80b1d3" stroke="black" points="212.44,-214.8 103.56,-214.8 103.56,-178.8 212.44,-178.8 212.44,-214.8"/>
<text text-anchor="middle" x="158" y="-192.6" font-family="Times,serif" font-size="14.00">AppComponent </text>
</g>
<!-- AppModule&#45;&gt;AppComponent  -->
<g id="edge3" class="edge">
<title>AppModule&#45;&gt;AppComponent </title>
<path fill="none" stroke="black" stroke-dasharray="1,5" d="M158,-149.91C158,-149.91 158,-168.79 158,-168.79"/>
<polygon fill="black" stroke="black" points="154.5,-168.79 158,-178.79 161.5,-168.79 154.5,-168.79"/>
</g>
<!-- AppRoutingModule -->
<g id="node3" class="node">
<title>AppRoutingModule</title>
<polygon fill="#8dd3c7" stroke="black" points="152.28,-84.8 149.28,-88.8 128.28,-88.8 125.28,-84.8 23.72,-84.8 23.72,-48.8 152.28,-48.8 152.28,-84.8"/>
<text text-anchor="middle" x="88" y="-62.6" font-family="Times,serif" font-size="14.00">AppRoutingModule</text>
</g>
<!-- AppRoutingModule&#45;&gt;AppModule -->
<g id="edge2" class="edge">
<title>AppRoutingModule&#45;&gt;AppModule</title>
<path fill="none" stroke="black" d="M134.28,-84.91C134.28,-84.91 134.28,-103.79 134.28,-103.79"/>
<polygon fill="black" stroke="black" points="130.78,-103.79 134.28,-113.79 137.78,-103.79 130.78,-103.79"/>
</g>
<!-- ForgotPasswordPage -->
<g id="node5" class="node">
<title>ForgotPasswordPage</title>
<polygon fill="#ffffb3" stroke="black" points="702.22,-84.8 567.78,-84.8 567.78,-48.8 702.22,-48.8 702.22,-84.8"/>
<text text-anchor="middle" x="635" y="-62.6" font-family="Times,serif" font-size="14.00">ForgotPasswordPage</text>
</g>
<!-- ForgotPasswordPageModule -->
<g id="node6" class="node">
<title>ForgotPasswordPageModule</title>
<polygon fill="#8dd3c7" stroke="black" points="615.77,-149.8 612.77,-153.8 591.77,-153.8 588.77,-149.8 438.23,-149.8 438.23,-113.8 615.77,-113.8 615.77,-149.8"/>
<text text-anchor="middle" x="527" y="-127.6" font-family="Times,serif" font-size="14.00">ForgotPasswordPageModule</text>
</g>
<!-- ForgotPasswordPage&#45;&gt;ForgotPasswordPageModule -->
<g id="edge4" class="edge">
<title>ForgotPasswordPage&#45;&gt;ForgotPasswordPageModule</title>
<path fill="none" stroke="black" d="M591.89,-84.91C591.89,-84.91 591.89,-103.79 591.89,-103.79"/>
<polygon fill="black" stroke="black" points="588.39,-103.79 591.89,-113.79 595.39,-103.79 588.39,-103.79"/>
</g>
<!-- ForgotPasswordPageRoutingModule -->
<g id="node7" class="node">
<title>ForgotPasswordPageRoutingModule</title>
<polygon fill="#8dd3c7" stroke="black" points="544.39,-84.8 541.39,-88.8 520.39,-88.8 517.39,-84.8 321.61,-84.8 321.61,-48.8 544.39,-48.8 544.39,-84.8"/>
<text text-anchor="middle" x="433" y="-62.6" font-family="Times,serif" font-size="14.00">ForgotPasswordPageRoutingModule</text>
</g>
<!-- ForgotPasswordPageRoutingModule&#45;&gt;ForgotPasswordPageModule -->
<g id="edge5" class="edge">
<title>ForgotPasswordPageRoutingModule&#45;&gt;ForgotPasswordPageModule</title>
<path fill="none" stroke="black" d="M491.28,-84.91C491.28,-84.91 491.28,-103.79 491.28,-103.79"/>
<polygon fill="black" stroke="black" points="487.78,-103.79 491.28,-113.79 494.78,-103.79 487.78,-103.79"/>
</g>
<!-- HomePage -->
<g id="node8" class="node">
<title>HomePage</title>
<polygon fill="#ffffb3" stroke="black" points="1009.93,-84.8 932.07,-84.8 932.07,-48.8 1009.93,-48.8 1009.93,-84.8"/>
<text text-anchor="middle" x="971" y="-62.6" font-family="Times,serif" font-size="14.00">HomePage</text>
</g>
<!-- HomePageModule -->
<g id="node9" class="node">
<title>HomePageModule</title>
<polygon fill="#8dd3c7" stroke="black" points="951.48,-149.8 948.48,-153.8 927.48,-153.8 924.48,-149.8 830.52,-149.8 830.52,-113.8 951.48,-113.8 951.48,-149.8"/>
<text text-anchor="middle" x="891" y="-127.6" font-family="Times,serif" font-size="14.00">HomePageModule</text>
</g>
<!-- HomePage&#45;&gt;HomePageModule -->
<g id="edge6" class="edge">
<title>HomePage&#45;&gt;HomePageModule</title>
<path fill="none" stroke="black" d="M941.89,-84.91C941.89,-84.91 941.89,-103.79 941.89,-103.79"/>
<polygon fill="black" stroke="black" points="938.39,-103.79 941.89,-113.79 945.39,-103.79 938.39,-103.79"/>
</g>
<!-- HomePageRoutingModule -->
<g id="node10" class="node">
<title>HomePageRoutingModule</title>
<polygon fill="#8dd3c7" stroke="black" points="908.1,-84.8 905.1,-88.8 884.1,-88.8 881.1,-84.8 741.9,-84.8 741.9,-48.8 908.1,-48.8 908.1,-84.8"/>
<text text-anchor="middle" x="825" y="-62.6" font-family="Times,serif" font-size="14.00">HomePageRoutingModule</text>
</g>
<!-- HomePageRoutingModule&#45;&gt;HomePageModule -->
<g id="edge7" class="edge">
<title>HomePageRoutingModule&#45;&gt;HomePageModule</title>
<path fill="none" stroke="black" d="M869.28,-84.91C869.28,-84.91 869.28,-103.79 869.28,-103.79"/>
<polygon fill="black" stroke="black" points="865.78,-103.79 869.28,-113.79 872.78,-103.79 865.78,-103.79"/>
</g>
<!-- AddDialog -->
<g id="node11" class="node">
<title>AddDialog</title>
<polygon fill="#ffffb3" stroke="black" points="1696.21,-84.8 1617.79,-84.8 1617.79,-48.8 1696.21,-48.8 1696.21,-84.8"/>
<text text-anchor="middle" x="1657" y="-62.6" font-family="Times,serif" font-size="14.00">AddDialog</text>
</g>
<!-- InventoryManagementPageModule -->
<g id="node14" class="node">
<title>InventoryManagementPageModule</title>
<polygon fill="#8dd3c7" stroke="black" points="1597.28,-149.8 1594.28,-153.8 1573.28,-153.8 1570.28,-149.8 1382.72,-149.8 1382.72,-113.8 1597.28,-113.8 1597.28,-149.8"/>
<text text-anchor="middle" x="1490" y="-127.6" font-family="Times,serif" font-size="14.00">InventoryManagementPageModule</text>
</g>
<!-- AddDialog&#45;&gt;InventoryManagementPageModule -->
<g id="edge8" class="edge">
<title>AddDialog&#45;&gt;InventoryManagementPageModule</title>
<path fill="none" stroke="black" d="M1657,-84.91C1657,-104.14 1657,-131.8 1657,-131.8 1657,-131.8 1607.18,-131.8 1607.18,-131.8"/>
<polygon fill="black" stroke="black" points="1607.18,-128.3 1597.18,-131.8 1607.18,-135.3 1607.18,-128.3"/>
</g>
<!-- EditDialog -->
<g id="node12" class="node">
<title>EditDialog</title>
<polygon fill="#ffffb3" stroke="black" points="1599.94,-84.8 1522.06,-84.8 1522.06,-48.8 1599.94,-48.8 1599.94,-84.8"/>
<text text-anchor="middle" x="1561" y="-62.6" font-family="Times,serif" font-size="14.00">EditDialog</text>
</g>
<!-- EditDialog&#45;&gt;InventoryManagementPageModule -->
<g id="edge9" class="edge">
<title>EditDialog&#45;&gt;InventoryManagementPageModule</title>
<path fill="none" stroke="black" d="M1559.71,-84.91C1559.71,-84.91 1559.71,-103.79 1559.71,-103.79"/>
<polygon fill="black" stroke="black" points="1556.21,-103.79 1559.71,-113.79 1563.21,-103.79 1556.21,-103.79"/>
</g>
<!-- InventoryManagementPage -->
<g id="node13" class="node">
<title>InventoryManagementPage</title>
<polygon fill="#ffffb3" stroke="black" points="1504.22,-84.8 1333.78,-84.8 1333.78,-48.8 1504.22,-48.8 1504.22,-84.8"/>
<text text-anchor="middle" x="1419" y="-62.6" font-family="Times,serif" font-size="14.00">InventoryManagementPage</text>
</g>
<!-- InventoryManagementPage&#45;&gt;InventoryManagementPageModule -->
<g id="edge10" class="edge">
<title>InventoryManagementPage&#45;&gt;InventoryManagementPageModule</title>
<path fill="none" stroke="black" d="M1443.61,-84.91C1443.61,-84.91 1443.61,-103.79 1443.61,-103.79"/>
<polygon fill="black" stroke="black" points="1440.11,-103.79 1443.61,-113.79 1447.11,-103.79 1440.11,-103.79"/>
</g>
<!-- InventoryManagementPageRoutingModule -->
<g id="node15" class="node">
<title>InventoryManagementPageRoutingModule</title>
<polygon fill="#8dd3c7" stroke="black" points="1309.89,-84.8 1306.89,-88.8 1285.89,-88.8 1282.89,-84.8 1050.11,-84.8 1050.11,-48.8 1309.89,-48.8 1309.89,-84.8"/>
<text text-anchor="middle" x="1180" y="-62.6" font-family="Times,serif" font-size="14.00">InventoryManagementPageRoutingModule</text>
</g>
<!-- InventoryManagementPageRoutingModule&#45;&gt;InventoryManagementPageModule -->
<g id="edge11" class="edge">
<title>InventoryManagementPageRoutingModule&#45;&gt;InventoryManagementPageModule</title>
<path fill="none" stroke="black" d="M1180,-84.91C1180,-104.14 1180,-131.8 1180,-131.8 1180,-131.8 1372.45,-131.8 1372.45,-131.8"/>
<polygon fill="black" stroke="black" points="1372.45,-135.3 1382.45,-131.8 1372.45,-128.3 1372.45,-135.3"/>
</g>
<!-- LoginPage -->
<g id="node16" class="node">
<title>LoginPage</title>
<polygon fill="#ffffb3" stroke="black" points="2002.16,-84.8 1925.84,-84.8 1925.84,-48.8 2002.16,-48.8 2002.16,-84.8"/>
<text text-anchor="middle" x="1964" y="-62.6" font-family="Times,serif" font-size="14.00">LoginPage</text>
</g>
<!-- LoginPageModule -->
<g id="node17" class="node">
<title>LoginPageModule</title>
<polygon fill="#8dd3c7" stroke="black" points="1944.21,-149.8 1941.21,-153.8 1920.21,-153.8 1917.21,-149.8 1823.79,-149.8 1823.79,-113.8 1944.21,-113.8 1944.21,-149.8"/>
<text text-anchor="middle" x="1884" y="-127.6" font-family="Times,serif" font-size="14.00">LoginPageModule</text>
</g>
<!-- LoginPage&#45;&gt;LoginPageModule -->
<g id="edge12" class="edge">
<title>LoginPage&#45;&gt;LoginPageModule</title>
<path fill="none" stroke="black" d="M1934.89,-84.91C1934.89,-84.91 1934.89,-103.79 1934.89,-103.79"/>
<polygon fill="black" stroke="black" points="1931.39,-103.79 1934.89,-113.79 1938.39,-103.79 1931.39,-103.79"/>
</g>
<!-- LoginPageRoutingModule -->
<g id="node18" class="node">
<title>LoginPageRoutingModule</title>
<polygon fill="#8dd3c7" stroke="black" points="1901.82,-84.8 1898.82,-88.8 1877.82,-88.8 1874.82,-84.8 1736.18,-84.8 1736.18,-48.8 1901.82,-48.8 1901.82,-84.8"/>
<text text-anchor="middle" x="1819" y="-62.6" font-family="Times,serif" font-size="14.00">LoginPageRoutingModule</text>
</g>
<!-- LoginPageRoutingModule&#45;&gt;LoginPageModule -->
<g id="edge13" class="edge">
<title>LoginPageRoutingModule&#45;&gt;LoginPageModule</title>
<path fill="none" stroke="black" d="M1862.78,-84.91C1862.78,-84.91 1862.78,-103.79 1862.78,-103.79"/>
<polygon fill="black" stroke="black" points="1859.28,-103.79 1862.78,-113.79 1866.28,-103.79 1859.28,-103.79"/>
</g>
<!-- EditOrderDialog -->
<g id="node19" class="node">
<title>EditOrderDialog</title>
<polygon fill="#ffffb3" stroke="black" points="2717.08,-84.8 2606.92,-84.8 2606.92,-48.8 2717.08,-48.8 2717.08,-84.8"/>
<text text-anchor="middle" x="2662" y="-62.6" font-family="Times,serif" font-size="14.00">EditOrderDialog</text>
</g>
<!-- OrderManagementPageModule -->
<g id="node22" class="node">
<title>OrderManagementPageModule</title>
<polygon fill="#8dd3c7" stroke="black" points="2534.5,-149.8 2531.5,-153.8 2510.5,-153.8 2507.5,-149.8 2341.5,-149.8 2341.5,-113.8 2534.5,-113.8 2534.5,-149.8"/>
<text text-anchor="middle" x="2438" y="-127.6" font-family="Times,serif" font-size="14.00">OrderManagementPageModule</text>
</g>
<!-- EditOrderDialog&#45;&gt;OrderManagementPageModule -->
<g id="edge14" class="edge">
<title>EditOrderDialog&#45;&gt;OrderManagementPageModule</title>
<path fill="none" stroke="black" d="M2662,-84.91C2662,-104.14 2662,-131.8 2662,-131.8 2662,-131.8 2544.3,-131.8 2544.3,-131.8"/>
<polygon fill="black" stroke="black" points="2544.3,-128.3 2534.3,-131.8 2544.3,-135.3 2544.3,-128.3"/>
</g>
<!-- OrderManagementPage -->
<g id="node20" class="node">
<title>OrderManagementPage</title>
<polygon fill="#ffffb3" stroke="black" points="2588.45,-84.8 2439.55,-84.8 2439.55,-48.8 2588.45,-48.8 2588.45,-84.8"/>
<text text-anchor="middle" x="2514" y="-62.6" font-family="Times,serif" font-size="14.00">OrderManagementPage</text>
</g>
<!-- OrderManagementPage&#45;&gt;OrderManagementPageModule -->
<g id="edge15" class="edge">
<title>OrderManagementPage&#45;&gt;OrderManagementPageModule</title>
<path fill="none" stroke="black" d="M2486.89,-84.91C2486.89,-84.91 2486.89,-103.79 2486.89,-103.79"/>
<polygon fill="black" stroke="black" points="2483.39,-103.79 2486.89,-113.79 2490.39,-103.79 2483.39,-103.79"/>
</g>
<!-- ViewOrderDialog -->
<g id="node21" class="node">
<title>ViewOrderDialog</title>
<polygon fill="#ffffb3" stroke="black" points="2421.58,-84.8 2304.42,-84.8 2304.42,-48.8 2421.58,-48.8 2421.58,-84.8"/>
<text text-anchor="middle" x="2363" y="-62.6" font-family="Times,serif" font-size="14.00">ViewOrderDialog</text>
</g>
<!-- ViewOrderDialog&#45;&gt;OrderManagementPageModule -->
<g id="edge16" class="edge">
<title>ViewOrderDialog&#45;&gt;OrderManagementPageModule</title>
<path fill="none" stroke="black" d="M2381.64,-84.91C2381.64,-84.91 2381.64,-103.79 2381.64,-103.79"/>
<polygon fill="black" stroke="black" points="2378.14,-103.79 2381.64,-113.79 2385.14,-103.79 2378.14,-103.79"/>
</g>
<!-- OrderManagementPageRoutingModule -->
<g id="node23" class="node">
<title>OrderManagementPageRoutingModule</title>
<polygon fill="#8dd3c7" stroke="black" points="2279.61,-84.8 2276.61,-88.8 2255.61,-88.8 2252.61,-84.8 2042.39,-84.8 2042.39,-48.8 2279.61,-48.8 2279.61,-84.8"/>
<text text-anchor="middle" x="2161" y="-62.6" font-family="Times,serif" font-size="14.00">OrderManagementPageRoutingModule</text>
</g>
<!-- OrderManagementPageRoutingModule&#45;&gt;OrderManagementPageModule -->
<g id="edge17" class="edge">
<title>OrderManagementPageRoutingModule&#45;&gt;OrderManagementPageModule</title>
<path fill="none" stroke="black" d="M2161,-84.91C2161,-104.14 2161,-131.8 2161,-131.8 2161,-131.8 2331.51,-131.8 2331.51,-131.8"/>
<polygon fill="black" stroke="black" points="2331.51,-135.3 2341.51,-131.8 2331.51,-128.3 2331.51,-135.3"/>
</g>
<!-- PantryStatisticsPage -->
<g id="node24" class="node">
<title>PantryStatisticsPage</title>
<polygon fill="#ffffb3" stroke="black" points="3129.32,-84.8 2998.68,-84.8 2998.68,-48.8 3129.32,-48.8 3129.32,-84.8"/>
<text text-anchor="middle" x="3064" y="-62.6" font-family="Times,serif" font-size="14.00">PantryStatisticsPage</text>
</g>
<!-- PantryStatisticsPageModule -->
<g id="node25" class="node">
<title>PantryStatisticsPageModule</title>
<polygon fill="#8dd3c7" stroke="black" points="3044.88,-149.8 3041.88,-153.8 3020.88,-153.8 3017.88,-149.8 2871.12,-149.8 2871.12,-113.8 3044.88,-113.8 3044.88,-149.8"/>
<text text-anchor="middle" x="2958" y="-127.6" font-family="Times,serif" font-size="14.00">PantryStatisticsPageModule</text>
</g>
<!-- PantryStatisticsPage&#45;&gt;PantryStatisticsPageModule -->
<g id="edge18" class="edge">
<title>PantryStatisticsPage&#45;&gt;PantryStatisticsPageModule</title>
<path fill="none" stroke="black" d="M3021.89,-84.91C3021.89,-84.91 3021.89,-103.79 3021.89,-103.79"/>
<polygon fill="black" stroke="black" points="3018.39,-103.79 3021.89,-113.79 3025.39,-103.79 3018.39,-103.79"/>
</g>
<!-- PantryStatisticsPageRoutingModule -->
<g id="node26" class="node">
<title>PantryStatisticsPageRoutingModule</title>
<polygon fill="#8dd3c7" stroke="black" points="2975.49,-84.8 2972.49,-88.8 2951.49,-88.8 2948.49,-84.8 2756.51,-84.8 2756.51,-48.8 2975.49,-48.8 2975.49,-84.8"/>
<text text-anchor="middle" x="2866" y="-62.6" font-family="Times,serif" font-size="14.00">PantryStatisticsPageRoutingModule</text>
</g>
<!-- PantryStatisticsPageRoutingModule&#45;&gt;PantryStatisticsPageModule -->
<g id="edge19" class="edge">
<title>PantryStatisticsPageRoutingModule&#45;&gt;PantryStatisticsPageModule</title>
<path fill="none" stroke="black" d="M2923.28,-84.91C2923.28,-84.91 2923.28,-103.79 2923.28,-103.79"/>
<polygon fill="black" stroke="black" points="2919.78,-103.79 2923.28,-113.79 2926.78,-103.79 2919.78,-103.79"/>
</g>
<!-- EditDetailsDialog -->
<g id="node27" class="node">
<title>EditDetailsDialog</title>
<polygon fill="#ffffb3" stroke="black" points="3579.59,-84.8 3462.41,-84.8 3462.41,-48.8 3579.59,-48.8 3579.59,-84.8"/>
<text text-anchor="middle" x="3521" y="-62.6" font-family="Times,serif" font-size="14.00">EditDetailsDialog</text>
</g>
<!-- ProfilePageModule -->
<g id="node29" class="node">
<title>ProfilePageModule</title>
<polygon fill="#8dd3c7" stroke="black" points="3466.37,-149.8 3463.37,-153.8 3442.37,-153.8 3439.37,-149.8 3341.63,-149.8 3341.63,-113.8 3466.37,-113.8 3466.37,-149.8"/>
<text text-anchor="middle" x="3404" y="-127.6" font-family="Times,serif" font-size="14.00">ProfilePageModule</text>
</g>
<!-- EditDetailsDialog&#45;&gt;ProfilePageModule -->
<g id="edge20" class="edge">
<title>EditDetailsDialog&#45;&gt;ProfilePageModule</title>
<path fill="none" stroke="black" d="M3462.37,-66.8C3457.02,-66.8 3453.56,-66.8 3453.56,-66.8 3453.56,-66.8 3453.56,-103.69 3453.56,-103.69"/>
<polygon fill="black" stroke="black" points="3450.06,-103.69 3453.56,-113.69 3457.06,-103.69 3450.06,-103.69"/>
</g>
<!-- ProfilePage -->
<g id="node28" class="node">
<title>ProfilePage</title>
<polygon fill="#ffffb3" stroke="black" points="3444.82,-84.8 3363.18,-84.8 3363.18,-48.8 3444.82,-48.8 3444.82,-84.8"/>
<text text-anchor="middle" x="3404" y="-62.6" font-family="Times,serif" font-size="14.00">ProfilePage</text>
</g>
<!-- ProfilePage&#45;&gt;ProfilePageModule -->
<g id="edge21" class="edge">
<title>ProfilePage&#45;&gt;ProfilePageModule</title>
<path fill="none" stroke="black" d="M3404,-84.91C3404,-84.91 3404,-103.79 3404,-103.79"/>
<polygon fill="black" stroke="black" points="3400.5,-103.79 3404,-113.79 3407.5,-103.79 3400.5,-103.79"/>
</g>
<!-- ProfilePageRoutingModule -->
<g id="node30" class="node">
<title>ProfilePageRoutingModule</title>
<polygon fill="#8dd3c7" stroke="black" points="3338.99,-84.8 3335.99,-88.8 3314.99,-88.8 3311.99,-84.8 3169.01,-84.8 3169.01,-48.8 3338.99,-48.8 3338.99,-84.8"/>
<text text-anchor="middle" x="3254" y="-62.6" font-family="Times,serif" font-size="14.00">ProfilePageRoutingModule</text>
</g>
<!-- ProfilePageRoutingModule&#45;&gt;ProfilePageModule -->
<g id="edge22" class="edge">
<title>ProfilePageRoutingModule&#45;&gt;ProfilePageModule</title>
<path fill="none" stroke="black" d="M3339.18,-66.8C3347.22,-66.8 3352.45,-66.8 3352.45,-66.8 3352.45,-66.8 3352.45,-103.69 3352.45,-103.69"/>
<polygon fill="black" stroke="black" points="3348.95,-103.69 3352.45,-113.69 3355.95,-103.69 3348.95,-103.69"/>
</g>
<!-- UserManagementPage -->
<g id="node31" class="node">
<title>UserManagementPage</title>
<polygon fill="#ffffb3" stroke="black" points="4018.23,-84.8 3875.77,-84.8 3875.77,-48.8 4018.23,-48.8 4018.23,-84.8"/>
<text text-anchor="middle" x="3947" y="-62.6" font-family="Times,serif" font-size="14.00">UserManagementPage</text>
</g>
<!-- UserManagementPageModule -->
<g id="node32" class="node">
<title>UserManagementPageModule</title>
<polygon fill="#8dd3c7" stroke="black" points="3927.28,-149.8 3924.28,-153.8 3903.28,-153.8 3900.28,-149.8 3740.72,-149.8 3740.72,-113.8 3927.28,-113.8 3927.28,-149.8"/>
<text text-anchor="middle" x="3834" y="-127.6" font-family="Times,serif" font-size="14.00">UserManagementPageModule</text>
</g>
<!-- UserManagementPage&#45;&gt;UserManagementPageModule -->
<g id="edge23" class="edge">
<title>UserManagementPage&#45;&gt;UserManagementPageModule</title>
<path fill="none" stroke="black" d="M3901.39,-84.91C3901.39,-84.91 3901.39,-103.79 3901.39,-103.79"/>
<polygon fill="black" stroke="black" points="3897.89,-103.79 3901.39,-113.79 3904.89,-103.79 3897.89,-103.79"/>
</g>
<!-- UserManagementPageRoutingModule -->
<g id="node33" class="node">
<title>UserManagementPageRoutingModule</title>
<polygon fill="#8dd3c7" stroke="black" points="3851.9,-84.8 3848.9,-88.8 3827.9,-88.8 3824.9,-84.8 3620.1,-84.8 3620.1,-48.8 3851.9,-48.8 3851.9,-84.8"/>
<text text-anchor="middle" x="3736" y="-62.6" font-family="Times,serif" font-size="14.00">UserManagementPageRoutingModule</text>
</g>
<!-- UserManagementPageRoutingModule&#45;&gt;UserManagementPageModule -->
<g id="edge24" class="edge">
<title>UserManagementPageRoutingModule&#45;&gt;UserManagementPageModule</title>
<path fill="none" stroke="black" d="M3796.28,-84.91C3796.28,-84.91 3796.28,-103.79 3796.28,-103.79"/>
<polygon fill="black" stroke="black" points="3792.78,-103.79 3796.28,-113.79 3799.78,-103.79 3792.78,-103.79"/>
</g>
</g>
</svg>
