<?xml version="1.0" encoding="UTF-8" standalone="no"?>
<!DOCTYPE svg PUBLIC "-//W3C//DTD SVG 1.1//EN"
 "http://www.w3.org/Graphics/SVG/1.1/DTD/svg11.dtd">
<!-- Generated by graphviz version 5.0.0 (20220707.1540)
 -->
<!-- Title: dependencies Pages: 1 -->
<svg width="702pt" height="174pt"
 viewBox="0.00 0.00 702.00 173.80" xmlns="http://www.w3.org/2000/svg" xmlns:xlink="http://www.w3.org/1999/xlink">
<g id="graph0" class="graph" transform="scale(1 1) rotate(0) translate(4 169.8)">
<title>dependencies</title>
<polygon fill="white" stroke="transparent" points="-4,4 -4,-169.8 698,-169.8 698,4 -4,4"/>
<text text-anchor="middle" x="347" y="-8.2" font-family="sans-serif" font-size="14.00">dependencies</text>
<g id="clust1" class="cluster">
<title>cluster_InventoryManagementPageModule</title>
<polygon fill="none" stroke="black" stroke-dasharray="1,5" points="8,-32.8 8,-157.8 686,-157.8 686,-32.8 8,-32.8"/>
</g>
<g id="clust2" class="cluster">
<title>cluster_InventoryManagementPageModule_declarations</title>
<polygon fill="none" stroke="black" points="300,-40.8 300,-92.8 678,-92.8 678,-40.8 300,-40.8"/>
</g>
<g id="clust6" class="cluster">
<title>cluster_InventoryManagementPageModule_imports</title>
<polygon fill="none" stroke="black" points="16,-40.8 16,-92.8 292,-92.8 292,-40.8 16,-40.8"/>
</g>
<!-- AddDialog -->
<g id="node1" class="node">
<title>AddDialog</title>
<polygon fill="#ffffb3" stroke="black" points="670.21,-84.8 591.79,-84.8 591.79,-48.8 670.21,-48.8 670.21,-84.8"/>
<text text-anchor="middle" x="631" y="-62.6" font-family="Times,serif" font-size="14.00">AddDialog</text>
</g>
<!-- InventoryManagementPageModule -->
<g id="node4" class="node">
<title>InventoryManagementPageModule</title>
<polygon fill="#8dd3c7" stroke="black" points="571.28,-149.8 568.28,-153.8 547.28,-153.8 544.28,-149.8 356.72,-149.8 356.72,-113.8 571.28,-113.8 571.28,-149.8"/>
<text text-anchor="middle" x="464" y="-127.6" font-family="Times,serif" font-size="14.00">InventoryManagementPageModule</text>
</g>
<!-- AddDialog&#45;&gt;InventoryManagementPageModule -->
<g id="edge1" class="edge">
<title>AddDialog&#45;&gt;InventoryManagementPageModule</title>
<path fill="none" stroke="black" d="M631,-84.91C631,-104.14 631,-131.8 631,-131.8 631,-131.8 581.18,-131.8 581.18,-131.8"/>
<polygon fill="black" stroke="black" points="581.18,-128.3 571.18,-131.8 581.18,-135.3 581.18,-128.3"/>
</g>
<!-- EditDialog -->
<g id="node2" class="node">
<title>EditDialog</title>
<polygon fill="#ffffb3" stroke="black" points="573.94,-84.8 496.06,-84.8 496.06,-48.8 573.94,-48.8 573.94,-84.8"/>
<text text-anchor="middle" x="535" y="-62.6" font-family="Times,serif" font-size="14.00">EditDialog</text>
</g>
<!-- EditDialog&#45;&gt;InventoryManagementPageModule -->
<g id="edge2" class="edge">
<title>EditDialog&#45;&gt;InventoryManagementPageModule</title>
<path fill="none" stroke="black" d="M533.71,-84.91C533.71,-84.91 533.71,-103.79 533.71,-103.79"/>
<polygon fill="black" stroke="black" points="530.21,-103.79 533.71,-113.79 537.21,-103.79 530.21,-103.79"/>
</g>
<!-- InventoryManagementPage -->
<g id="node3" class="node">
<title>InventoryManagementPage</title>
<polygon fill="#ffffb3" stroke="black" points="478.22,-84.8 307.78,-84.8 307.78,-48.8 478.22,-48.8 478.22,-84.8"/>
<text text-anchor="middle" x="393" y="-62.6" font-family="Times,serif" font-size="14.00">InventoryManagementPage</text>
</g>
<!-- InventoryManagementPage&#45;&gt;InventoryManagementPageModule -->
<g id="edge3" class="edge">
<title>InventoryManagementPage&#45;&gt;InventoryManagementPageModule</title>
<path fill="none" stroke="black" d="M417.61,-84.91C417.61,-84.91 417.61,-103.79 417.61,-103.79"/>
<polygon fill="black" stroke="black" points="414.11,-103.79 417.61,-113.79 421.11,-103.79 414.11,-103.79"/>
</g>
<!-- InventoryManagementPageRoutingModule -->
<g id="node5" class="node">
<title>InventoryManagementPageRoutingModule</title>
<polygon fill="#8dd3c7" stroke="black" points="283.89,-84.8 280.89,-88.8 259.89,-88.8 256.89,-84.8 24.11,-84.8 24.11,-48.8 283.89,-48.8 283.89,-84.8"/>
<text text-anchor="middle" x="154" y="-62.6" font-family="Times,serif" font-size="14.00">InventoryManagementPageRoutingModule</text>
</g>
<!-- InventoryManagementPageRoutingModule&#45;&gt;InventoryManagementPageModule -->
<g id="edge4" class="edge">
<title>InventoryManagementPageRoutingModule&#45;&gt;InventoryManagementPageModule</title>
<path fill="none" stroke="black" d="M154,-84.91C154,-104.14 154,-131.8 154,-131.8 154,-131.8 346.45,-131.8 346.45,-131.8"/>
<polygon fill="black" stroke="black" points="346.45,-135.3 356.45,-131.8 346.45,-128.3 346.45,-135.3"/>
</g>
</g>
</svg>
