<?xml version="1.0" encoding="UTF-8" standalone="no"?>
<!DOCTYPE svg PUBLIC "-//W3C//DTD SVG 1.1//EN"
 "http://www.w3.org/Graphics/SVG/1.1/DTD/svg11.dtd">
<!-- Generated by graphviz version 5.0.0 (20220707.1540)
 -->
<!-- Title: dependencies Pages: 1 -->
<svg width="467pt" height="174pt"
 viewBox="0.00 0.00 467.00 173.80" xmlns="http://www.w3.org/2000/svg" xmlns:xlink="http://www.w3.org/1999/xlink">
<g id="graph0" class="graph" transform="scale(1 1) rotate(0) translate(4 169.8)">
<title>dependencies</title>
<polygon fill="white" stroke="transparent" points="-4,4 -4,-169.8 463,-169.8 463,4 -4,4"/>
<text text-anchor="middle" x="229.5" y="-8.2" font-family="sans-serif" font-size="14.00">dependencies</text>
<g id="clust1" class="cluster">
<title>cluster_ProfilePageModule</title>
<polygon fill="none" stroke="black" stroke-dasharray="1,5" points="8,-32.8 8,-157.8 451,-157.8 451,-32.8 8,-32.8"/>
</g>
<g id="clust5" class="cluster">
<title>cluster_ProfilePageModule_imports</title>
<polygon fill="none" stroke="black" points="257,-40.8 257,-92.8 443,-92.8 443,-40.8 257,-40.8"/>
</g>
<g id="clust2" class="cluster">
<title>cluster_ProfilePageModule_declarations</title>
<polygon fill="none" stroke="black" points="16,-40.8 16,-92.8 249,-92.8 249,-40.8 16,-40.8"/>
</g>
<!-- EditDetailsDialog -->
<g id="node1" class="node">
<title>EditDetailsDialog</title>
<polygon fill="#ffffb3" stroke="black" points="240.59,-84.8 123.41,-84.8 123.41,-48.8 240.59,-48.8 240.59,-84.8"/>
<text text-anchor="middle" x="182" y="-62.6" font-family="Times,serif" font-size="14.00">EditDetailsDialog</text>
</g>
<!-- ProfilePageModule -->
<g id="node3" class="node">
<title>ProfilePageModule</title>
<polygon fill="#8dd3c7" stroke="black" points="244.37,-149.8 241.37,-153.8 220.37,-153.8 217.37,-149.8 119.63,-149.8 119.63,-113.8 244.37,-113.8 244.37,-149.8"/>
<text text-anchor="middle" x="182" y="-127.6" font-family="Times,serif" font-size="14.00">ProfilePageModule</text>
</g>
<!-- EditDetailsDialog&#45;&gt;ProfilePageModule -->
<g id="edge1" class="edge">
<title>EditDetailsDialog&#45;&gt;ProfilePageModule</title>
<path fill="none" stroke="black" d="M182,-84.91C182,-84.91 182,-103.79 182,-103.79"/>
<polygon fill="black" stroke="black" points="178.5,-103.79 182,-113.79 185.5,-103.79 178.5,-103.79"/>
</g>
<!-- ProfilePage -->
<g id="node2" class="node">
<title>ProfilePage</title>
<polygon fill="#ffffb3" stroke="black" points="105.82,-84.8 24.18,-84.8 24.18,-48.8 105.82,-48.8 105.82,-84.8"/>
<text text-anchor="middle" x="65" y="-62.6" font-family="Times,serif" font-size="14.00">ProfilePage</text>
</g>
<!-- ProfilePage&#45;&gt;ProfilePageModule -->
<g id="edge2" class="edge">
<title>ProfilePage&#45;&gt;ProfilePageModule</title>
<path fill="none" stroke="black" d="M65,-84.91C65,-104.14 65,-131.8 65,-131.8 65,-131.8 109.39,-131.8 109.39,-131.8"/>
<polygon fill="black" stroke="black" points="109.39,-135.3 119.39,-131.8 109.39,-128.3 109.39,-135.3"/>
</g>
<!-- ProfilePageRoutingModule -->
<g id="node4" class="node">
<title>ProfilePageRoutingModule</title>
<polygon fill="#8dd3c7" stroke="black" points="434.99,-84.8 431.99,-88.8 410.99,-88.8 407.99,-84.8 265.01,-84.8 265.01,-48.8 434.99,-48.8 434.99,-84.8"/>
<text text-anchor="middle" x="350" y="-62.6" font-family="Times,serif" font-size="14.00">ProfilePageRoutingModule</text>
</g>
<!-- ProfilePageRoutingModule&#45;&gt;ProfilePageModule -->
<g id="edge3" class="edge">
<title>ProfilePageRoutingModule&#45;&gt;ProfilePageModule</title>
<path fill="none" stroke="black" d="M350,-84.91C350,-104.14 350,-131.8 350,-131.8 350,-131.8 254.56,-131.8 254.56,-131.8"/>
<polygon fill="black" stroke="black" points="254.56,-128.3 244.56,-131.8 254.56,-135.3 254.56,-128.3"/>
</g>
</g>
</svg>
