<?xml version="1.0" encoding="UTF-8" standalone="no"?>
<!DOCTYPE svg PUBLIC "-//W3C//DTD SVG 1.1//EN"
 "http://www.w3.org/Graphics/SVG/1.1/DTD/svg11.dtd">
<!-- Generated by graphviz version 5.0.0 (20220707.1540)
 -->
<!-- Title: dependencies Pages: 1 -->
<svg width="731pt" height="174pt"
 viewBox="0.00 0.00 731.00 173.80" xmlns="http://www.w3.org/2000/svg" xmlns:xlink="http://www.w3.org/1999/xlink">
<g id="graph0" class="graph" transform="scale(1 1) rotate(0) translate(4 169.8)">
<title>dependencies</title>
<polygon fill="white" stroke="transparent" points="-4,4 -4,-169.8 727,-169.8 727,4 -4,4"/>
<text text-anchor="middle" x="361.5" y="-8.2" font-family="sans-serif" font-size="14.00">dependencies</text>
<g id="clust1" class="cluster">
<title>cluster_OrderManagementPageModule</title>
<polygon fill="none" stroke="black" stroke-dasharray="1,5" points="8,-32.8 8,-157.8 715,-157.8 715,-32.8 8,-32.8"/>
</g>
<g id="clust6" class="cluster">
<title>cluster_OrderManagementPageModule_imports</title>
<polygon fill="none" stroke="black" points="453,-40.8 453,-92.8 707,-92.8 707,-40.8 453,-40.8"/>
</g>
<g id="clust2" class="cluster">
<title>cluster_OrderManagementPageModule_declarations</title>
<polygon fill="none" stroke="black" points="16,-40.8 16,-92.8 445,-92.8 445,-40.8 16,-40.8"/>
</g>
<!-- EditOrderDialog -->
<g id="node1" class="node">
<title>EditOrderDialog</title>
<polygon fill="#ffffb3" stroke="black" points="437.08,-84.8 326.92,-84.8 326.92,-48.8 437.08,-48.8 437.08,-84.8"/>
<text text-anchor="middle" x="382" y="-62.6" font-family="Times,serif" font-size="14.00">EditOrderDialog</text>
</g>
<!-- OrderManagementPageModule -->
<g id="node4" class="node">
<title>OrderManagementPageModule</title>
<polygon fill="#8dd3c7" stroke="black" points="404.5,-149.8 401.5,-153.8 380.5,-153.8 377.5,-149.8 211.5,-149.8 211.5,-113.8 404.5,-113.8 404.5,-149.8"/>
<text text-anchor="middle" x="308" y="-127.6" font-family="Times,serif" font-size="14.00">OrderManagementPageModule</text>
</g>
<!-- EditOrderDialog&#45;&gt;OrderManagementPageModule -->
<g id="edge1" class="edge">
<title>EditOrderDialog&#45;&gt;OrderManagementPageModule</title>
<path fill="none" stroke="black" d="M365.6,-84.91C365.6,-84.91 365.6,-103.79 365.6,-103.79"/>
<polygon fill="black" stroke="black" points="362.1,-103.79 365.6,-113.79 369.1,-103.79 362.1,-103.79"/>
</g>
<!-- OrderManagementPage -->
<g id="node2" class="node">
<title>OrderManagementPage</title>
<polygon fill="#ffffb3" stroke="black" points="308.45,-84.8 159.55,-84.8 159.55,-48.8 308.45,-48.8 308.45,-84.8"/>
<text text-anchor="middle" x="234" y="-62.6" font-family="Times,serif" font-size="14.00">OrderManagementPage</text>
</g>
<!-- OrderManagementPage&#45;&gt;OrderManagementPageModule -->
<g id="edge2" class="edge">
<title>OrderManagementPage&#45;&gt;OrderManagementPageModule</title>
<path fill="none" stroke="black" d="M260.11,-84.91C260.11,-84.91 260.11,-103.79 260.11,-103.79"/>
<polygon fill="black" stroke="black" points="256.61,-103.79 260.11,-113.79 263.61,-103.79 256.61,-103.79"/>
</g>
<!-- ViewOrderDialog -->
<g id="node3" class="node">
<title>ViewOrderDialog</title>
<polygon fill="#ffffb3" stroke="black" points="141.58,-84.8 24.42,-84.8 24.42,-48.8 141.58,-48.8 141.58,-84.8"/>
<text text-anchor="middle" x="83" y="-62.6" font-family="Times,serif" font-size="14.00">ViewOrderDialog</text>
</g>
<!-- ViewOrderDialog&#45;&gt;OrderManagementPageModule -->
<g id="edge3" class="edge">
<title>ViewOrderDialog&#45;&gt;OrderManagementPageModule</title>
<path fill="none" stroke="black" d="M83,-84.91C83,-104.14 83,-131.8 83,-131.8 83,-131.8 201.6,-131.8 201.6,-131.8"/>
<polygon fill="black" stroke="black" points="201.6,-135.3 211.6,-131.8 201.6,-128.3 201.6,-135.3"/>
</g>
<!-- OrderManagementPageRoutingModule -->
<g id="node5" class="node">
<title>OrderManagementPageRoutingModule</title>
<polygon fill="#8dd3c7" stroke="black" points="698.61,-84.8 695.61,-88.8 674.61,-88.8 671.61,-84.8 461.39,-84.8 461.39,-48.8 698.61,-48.8 698.61,-84.8"/>
<text text-anchor="middle" x="580" y="-62.6" font-family="Times,serif" font-size="14.00">OrderManagementPageRoutingModule</text>
</g>
<!-- OrderManagementPageRoutingModule&#45;&gt;OrderManagementPageModule -->
<g id="edge4" class="edge">
<title>OrderManagementPageRoutingModule&#45;&gt;OrderManagementPageModule</title>
<path fill="none" stroke="black" d="M580,-84.91C580,-104.14 580,-131.8 580,-131.8 580,-131.8 414.28,-131.8 414.28,-131.8"/>
<polygon fill="black" stroke="black" points="414.28,-128.3 404.28,-131.8 414.28,-135.3 414.28,-128.3"/>
</g>
</g>
</svg>
